<?xml version="1.0" encoding="UTF-8"?>
<svg width="67px" height="76px" viewBox="0 0 67 76" version="1.1" xmlns="http://www.w3.org/2000/svg" xmlns:xlink="http://www.w3.org/1999/xlink">
    <!-- Generator: Sketch 43.1 (39012) - http://www.bohemiancoding.com/sketch -->
    <title>Berry</title>
    <desc>Created with Sketch.</desc>
    <defs></defs>
    <g id="Page-1" stroke="none" stroke-width="1" fill="none" fill-rule="evenodd">
        <g id="Berry" transform="translate(2.000000, 3.000000)">
            <path d="M31.695287,29.2125976 C31.695287,29.2125976 34.7912721,12.4518786 25.1396484,8 C15.4880248,3.54812144 0.896484375,11.7431641 0.896484375,11.7431641 C0.896484375,11.7431641 19.9169922,12.3439657 19.9169922,16.9677734 C19.9169922,21.5915812 21.5849609,23.4525352 29.6035523,21.5915812 C34.6011382,18.9049529 39.7421875,22.0390625 43.8164062,16.9677734 C47.890625,11.8964844 41.1884766,10.6435547 61.8828125,3.83886719 C56.3115234,0.256835937 46.9786283,-1.66050066 41.7480469,2.47753906 C36.5174654,6.61557878 34.206515,17.6074262 31.695287,21.5915812" id="leaves" stroke="#000000" stroke-width="5" fill="#B0D870" stroke-linecap="round" stroke-linejoin="round"></path>
            <path d="M27.5820313,29.1047638 C25.7099609,27.7556364 8.57081576,24.72289 6.30175781,36.1235717 C3.09570312,52.2321111 22.3276173,70 32.551504,70 C42.7753906,70 62.9658203,54.4762718 58.3925781,36.1235717 C55.187641,23.2619634 38.2246094,26.7749755 35.7763672,29.1047638 C33.328125,31.434552 32.7491709,33.0072944 32.7491709,33.0072944 C32.7491709,33.0072944 29.4541016,30.4538912 27.5820313,29.1047638 Z" id="body" stroke="#000000" stroke-width="5" fill="#B83000" stroke-linecap="round" stroke-linejoin="round"></path>
            <path d="M42.9672852,35.4785156 C35.1123047,37.2421875 41.466161,31.9111328 45.8022461,31.9111328 C50.1383312,31.9111328 53.4453125,34.359375 52.6210937,38.7177734 C52.6210937,45.1210938 51.3540039,46.9375 48.9584961,52.0717773 C46.5629883,57.2060547 51.8017578,36.0771484 42.9672852,35.4785156 Z" id="highlight" fill="#F0C830"></path>
        </g>
    </g>
</svg>