<svg width="1740px" height="1728px" viewBox="0 0 1740 1728" version="1.1" xmlns="http://www.w3.org/2000/svg" xmlns:xlink="http://www.w3.org/1999/xlink" id="cow-animated">
    <g stroke="none" stroke-width="1" fill="none" fill-rule="evenodd" transform="translate(15.000000, 15.000000)">
        <g id="Tail" transform="translate(1290.000000, 1292.000000)">
        <polygon id="tail-color" fill="#FFFFFF" points="21.28125 92.1875 29.7421875 100.253906 43.3710938 100.253906 55.5078125 95.1015625 67.828125 71.6484375 98.3671875 30.1914062 140.238281 4.65234375 203.976562 0.19140625 253.652344 6.89453125 296.851562 25.6953125 334.003906 54.2070312 354.921875 76.6875 365.984375 124.679687 364.648438 190.398437 365.136719 200.917969 395.808594 215.609375 336.570312 213.902344 329.6875 168.53125 314.132812 94.7539062 253.1875 48.8515625 175.496094 35.6953125 124.0625 62.8945312 101.6875 106.839844 62.265625 136.390625 25.3359375 136.515625 2.63671875 125.132813"></polygon>
        <polygon id="tail-hair-color" fill="#B8A381" points="328.578125 211.074219 313.367188 234.847656 313.109375 275.875 328.355469 305.710938 346.644531 317.519531 370.359375 337.828125 358.710938 393.339844 380.566406 378.574219 410.292969 335.769531 421.960938 286 411.839844 232.660156 379.019531 205.1875 361.554688 202.761719"></polygon>
        <path d="M0.6015625,125.679687 C0.6015625,125.679687 37.2185941,147.987286 63.390625,133.699219 C116.546875,104.679687 103.629984,65.9831476 153.996094,45.0664062 C204.362203,24.1496649 252.821117,48.9668602 269.445312,56.0976562 C309.478516,73.2695312 326.722656,115.283297 326.722656,151.386719 C326.722656,207.945312 345.845703,207.488281 331.355469,213.183594 C316.865234,218.878906 303.480469,239.654297 310.929688,275.158203 C318.378906,310.662109 365.3125,320.835937 365.5625,339.410156 C365.8125,357.984375 358.195313,390.621094 353.027344,403.476562 C347.859375,416.332031 411.908203,354.001953 417.701172,309.144531 C423.494141,264.287109 421.314825,215.295537 368.396484,200.951205 C350.894531,196.207031 393.558594,94.9863281 317.761719,39.7421875 C279.850924,12.1111107 238.460937,-2.19140625 167.269531,0.359375 C127.3312,1.79036158 96.7128906,22.3847656 71.9257813,64.6679688 C34.6008672,128.338843 19.6484375,84.0429688 19.6484375,84.0429688" id="tail-path" stroke="#000000" stroke-width="30"></path>
    </g>

        <g id="Body" transform="translate(300.000000, 417.000000)">
            <polygon id="body-color" fill="#FFFFFF" points="377.179688 0.953125 446.0625 35.0078125 534.601563 93.8046875 615.4375 152.84375 696.710937 231.445312 826.765625 372.132812 942.40625 550.640625 1016.41406 729.164063 1032.45312 840.257813 1021.89844 929.734375 985.773437 1008.625 936.742187 1055.88281 870.257812 1094.59375 778.5 1120.28906 686.320312 1131.41406 596.742187 1135.83594 503.351562 1131.53125 438.632813 1129.38281 342.007813 1114.45313 211.375 1083.11719 114.390625 1044.94531 30.8359375 1002.28906 2.984375 980.03125 13.25 938.75 29 932.90625 55.5078125 942.054688 112.820312 968.757812 188.25 999.710938 281.421875 1032.16406 338.179688 1039.09375 367.554688 1031.5 340.601563 1003.75 264.90625 931.882813 228.773437 858.304688 218.992188 824.390625 202.9375 879.453125 188.273437 945.078125 165.617187 946.546875 133.492187 926.523438 131.242187 903.078125 163.359375 728.742188 177.4375 584.382813 198.226563 421.195313 223.679687 303.164062 266.859375 153.726563"></polygon>
            <path d="M27.296875,926.558594 C32.7211546,926.558594 75.8896144,948.576698 76.9101563,953.617188 C78.4198308,961.073519 67.7949219,953.328125 54.1269531,980.042969 C30.4658156,1026.29004 39.2140248,1008.51367 19.5039063,1000.6875 C-4.32508204,991.225875 -1.67646663,968.754812 8.109375,947.738281 C16.5771534,929.552485 13.4999915,931.856709 23.4492188,927.417969 L27.296875,926.558594 Z" id="hoof" fill="#B8A381"></path>
            <path d="M139.556641,864.394531 C146.462828,877.318314 160.134438,883.59044 174.484375,885.761719 C181.611336,886.840094 191.587471,882.116078 196.011719,887.806641 C199.857585,892.753276 191.194408,899.451039 189.892578,905.580078 C187.469192,916.989424 187.24386,928.788932 184.880859,940.210938 C184.458963,942.250251 183.638108,945.009872 181.625,945.542969 C158.915755,951.55667 158.989341,942.985107 142.40625,931.148438 C136.650869,927.040365 129.519193,924.960339 124.123047,920.390625 C113.740142,911.597886 129.423531,873.501251 135.669922,864.806641 L139.556641,864.394531 Z" id="hoof2" fill="#B8A381"></path>
            <path d="M609.898438,156.09375 C609.898438,156.09375 593.265625,165.554688 575.015625,197.421875 C556.765625,229.289062 496.273437,285.460938 505.703125,389.6875 C515.132813,493.914062 583.882813,465.289062 596.890625,558.6875 C609.898438,652.085938 599.28125,709.867187 619.039063,771.523438 C638.796875,833.179688 647.101563,883.5 701.429688,899.664062 C755.757813,915.828125 791.726563,919.25 826.664063,935.945313 C861.601563,952.640625 894.429688,960.242188 922.179688,957.515625 C949.929688,954.789062 998.586039,967.29014 1030.28125,899.664062 C1066.29297,822.828125 979.929688,618.851562 979.929688,618.851562 L924.859375,511 L817.992188,363.335938 L647.460938,180.234375 L609.898438,156.09375 Z" id="body-spot" fill="#646873"></path>
            <path d="M375.101563,0.3515625 C642.726563,120.484375 885.679688,423.929688 970.992188,606.664062 C1039.45529,753.308007 1048.75,898.304688 1006.17969,968.515625 C963.609375,1038.72656 921.054688,1121.98438 651.757813,1133.20313 C501.450223,1139.46485 345.424493,1132.69141 214.140625,1087.00781 C124.482715,1055.80904 8.98828125,994.5625 1.7109375,981.539062 C-5.56640625,968.515625 23.7851562,925.671875 23.7851562,925.671875 C23.7851562,925.671875 270.605061,1070.39903 366.195313,1033.54687 C392.042969,1023.58203 188.215627,927.565609 227.242188,792.589844 C238.648438,753.140625 288.085938,578.367187 297.195313,545.789062 C306.304688,513.210937 191.007812,891.496094 186.390625,948.023438 C185.313962,961.204812 118.248934,936.831354 125.585937,908.148437 C145.7912,829.15899 165.045648,694.179762 170.726562,625.386719 C176.979578,549.665815 187.292969,459.777344 202.21875,387.003906 C229.157892,255.657084 250.175781,199.636719 266.707031,147.027344" id="body-outline" stroke="#000000" stroke-width="30" stroke-linecap="round" stroke-linejoin="round"></path>
        </g>

        <g id="Head">
            <polygon id="helmet-color" fill-opacity="0.5" fill="#DCDCDC" points="121.746094 104.980469 83.3476562 145.316406 55.2617187 189.195312 30.5703125 238.425781 14.46875 275.011719 9.54296875 315.285156 0.51171875 372.691406 6.7265625 436.800781 20.96875 484.898438 47.7890625 547.945312 86.6640625 601.640625 126.925781 642.128906 200.878906 695.042969 275.632812 723.21875 348.019531 739.367187 448.480469 737.210938 551.148437 709.15625 632.941406 666.386719 687.3125 619.003906 750.148438 533.5625 785.328125 432.058594 785.101562 303.867187 762.335938 230.039062 711.117188 151.050781 653 92.765625 598.859375 55.4726562 538.078125 24.6289062 455.5 1.953125 394.554688 3.0546875 317.289062 6.1171875 252.800781 26.1210938 190.003906 54.2890625 128.976562 100.679687"></polygon>
            <path d="M580.175781,554.46875 C533.601562,580.484375 464.648438,595.410156 376.558594,607.753906 C288.46875,620.097656 229.484375,604.765625 205.605469,586.339844 C181.726563,567.914063 133.636719,511.453125 126.636719,463.800781 C119.636719,416.148438 117.0625,390.003906 145.527344,313.871094 C173.992188,237.738281 311.193657,194.212704 399.171875,205.523438 C487.150093,216.834171 596.065013,246.92199 641.730469,309.621094 C666.015625,342.964844 670.628906,363.953125 670.628906,389.320313 C670.628906,414.6875 658.546875,438.394531 658.546875,438.394531 C658.546875,438.394531 702.324219,443.472656 711.457031,469.304687 C720.589844,495.136719 717.097656,527.695313 701.070312,545.695312 C685.042969,563.695312 684.199219,528.738281 666.015625,507.667969 C647.832031,486.597656 634.859375,492.589844 634.859375,492.589844 C634.859375,492.589844 626.75,528.453125 580.175781,554.46875 Z" id="face-color" fill="#FFFFFF"></path>
            <polygon id="ear-color" fill="#646873" points="611.765625 286.779297 614.761719 226.970703 627.335938 191.091797 647.722656 200.136719 664.439453 223.492188 670.050781 253.119141 653.835938 285.699219 638.646484 304.164062"></polygon>
            <path d="M532.844472,234.633744 C532.844472,234.633744 405.816259,197.664045 400.267578,211.705078 C388.939453,240.371094 397.363281,283.664062 434.738281,304.599609 C459.528079,318.485575 515.397191,317.283336 556.091797,330.582031 C596.786402,343.880726 657.701771,396.277419 671.927734,383.810547 C676.460937,379.837891 668.485508,341.423155 652.942759,314.219059 C637.40001,287.014963 532.844472,234.633744 532.844472,234.633744 Z" id="Eye-Spot" fill="#646873"></path>
            <polygon id="nose-color" fill="#FDCAD5" points="315.898438 216.1875 294.386719 235.003906 280.183594 288.214844 277.210938 330.347656 278.824219 401.839844 287.738281 443.503906 307.542969 498.765625 330.355469 548.3125 380.71875 610.101562 315.898438 616.464844 256.859375 610.101562 201.9375 580.445313 162.050781 540.386719 139.429688 498.765625 127.832031 423.699219 127.832031 364.535156 156.179688 302.019531 191.476562 262.925781 256.859375 227.449219"></polygon>
            <ellipse id="left-nostril" fill="#000000" transform="translate(236.677670, 307.677670) rotate(45.000000) translate(-236.677670, -307.677670) " cx="236.67767" cy="307.67767" rx="7.5" ry="17.5"></ellipse>
            <ellipse id="right-nostril" fill="#000000" transform="translate(236.677670, 356.677670) rotate(-45.000000) translate(-236.677670, -356.677670) " cx="236.67767" cy="356.67767" rx="7.5" ry="17.5"></ellipse>
            <path d="M634.292969,304.697266 C634.292969,304.697266 669.337891,273.29855 669.337891,247.018416 C669.337891,220.738281 655.763843,216.747975 637.405355,196.367187 C627.539062,185.414062 624.721193,189.256375 619.580078,199.617187 C604.501953,230.003906 613.509766,250.746094 610.503906,285.541016" id="left-ear" stroke="#000000" stroke-width="30"></path>
            <path d="M579.894531,554.070312 C579.894531,554.070312 417.847391,619.226562 309.937549,617.226563 C202.027706,615.226563 134.229515,532 123.841663,448.175781 C118.727423,406.906699 118.914092,311.933594 198.255541,256.003906 C277.596991,200.074219 428.736692,201.643212 498.653794,224.359375 C593.670606,255.230469 647.994509,315.241201 657.484268,327.007813 C674.505804,348.113281 684.296156,398.375 662.714188,424.847656 C641.132219,451.320313 680.40881,441.585937 699.478401,452.929687 C718.547993,464.273438 720.027344,482.253906 720.027344,504.222656 C720.027344,526.191406 700.730991,556.558594 684.400539,541.53125 C668.070086,526.503906 675.373258,485.699219 629.099444,492.058594" id="face-path" stroke="#000000" stroke-width="30" stroke-linecap="round" stroke-linejoin="round"></path>
            <path d="M287.195312,51.5507812 C259.236253,61.1163626 231.096149,76.7629805 215.316406,92.2539063 C199.203125,108.072266 225.857143,95.9059317 233.363281,93.8945313 C272.092863,83.5162656 319.133873,63.724941 361.439453,53.9414063 C399.191406,45.2109375 449.939453,43.2402344 544.835937,70.7773438 C476.637843,28.9513114 359.713197,26.7403712 287.195312,51.5507812 Z" id="helmet-highlight" fill="#FFFFFF"></path>
            <ellipse id="helmet-outline" stroke="#000000" stroke-width="30" cx="393.5" cy="370" rx="393.5" ry="370"></ellipse>

            <g id="g-eyes-open" transform="translate(440.000000, 240.000000)" fill="#000000">
                <path d="M30.7089844,4.05078125 C23.7421875,3.01888021 16.8065433,0.161491366 9.80859375,0.955078125 C-7.96455903,2.97060261 3.32721516,24.3249262 16.203125,26.6054688 C30.6930371,29.1718785 46.5881621,10.0843327 28.109375,3.62695313" id="Left-Eye"></path>
                <path d="M22.4375,123.723633 C-0.2109375,132.841309 21.5627534,158.456164 40.1347656,150.830078 C63.1134681,141.394506 46.2700195,120.169922 26.2041016,123.047852 L22.4375,123.723633 Z" id="Right-eye"></path>
            </g>

            <g id="g-eyes-closed" transform="translate(444.000000, 244.000000)" stroke-linecap="round" stroke-width="20" stroke="#000000" stroke-linejoin="round">
                <polyline id="Right-eye-closed" points="44.6503906 147.888672 28.2949219 123.910156 14.5175781 147.888672"></polyline>
                <polyline id="Left-eye-closed" points="30.34375 4.20507812 16.0117188 17.0683594 0.146484375 0.498046875"></polyline>
            </g>

            <g id="g-eyes-down" transform="translate(445.000000, 240.000000)" stroke="#000000" stroke-width="20" stroke-linecap="round" stroke-linejoin="round">
                <path d="M28.9179688,122.375 C28.9179688,122.375 5.98828125,143.097656 30.9335938,155.160156 M11.0273437,0.84375 C11.0273437,0.84375 -13.4726563,10.171875 12.1289062,23.5898437"></path>
            </g>
        </g>
    </g>
</svg>