<?xml version="1.0" encoding="UTF-8"?>
<svg width="1740px" height="1728px" viewBox="0 0 1740 1728" version="1.1" xmlns="http://www.w3.org/2000/svg" xmlns:xlink="http://www.w3.org/1999/xlink">
    <!-- Generator: Sketch 43.1 (39012) - http://www.bohemiancoding.com/sketch -->
    <title>Group</title>
    <desc>Created with Sketch.</desc>
    <defs></defs>
    <g id="Page-1" stroke="none" stroke-width="1" fill="none" fill-rule="evenodd">
        <g id="Group" transform="translate(15.000000, 15.000000)">
            <polygon id="Tail-color" fill="#FFFFFF" points="1311.28125 1384.1875 1319.74219 1392.25391 1333.37109 1392.25391 1345.50781 1387.10156 1357.82812 1363.64844 1388.36719 1322.19141 1430.23828 1296.65234 1493.97656 1292.19141 1543.65234 1298.89453 1586.85156 1317.69531 1624.00391 1346.20703 1644.92188 1368.6875 1655.98438 1416.67969 1654.64844 1482.39844 1655.13672 1492.91797 1685.80859 1507.60938 1626.57031 1505.90234 1619.6875 1460.53125 1604.13281 1386.75391 1543.1875 1340.85156 1465.49609 1327.69531 1414.0625 1354.89453 1391.6875 1398.83984 1352.26562 1428.39062 1315.33594 1428.51562 1292.63672 1417.13281"></polygon>
            <polygon id="Tail-hair-color" fill="#B8A381" points="1618.57812 1503.07422 1603.36719 1526.84766 1603.10938 1567.875 1618.35547 1597.71094 1636.64453 1609.51953 1660.35938 1629.82812 1648.71094 1685.33984 1670.56641 1670.57422 1700.29297 1627.76953 1711.96094 1578 1701.83984 1524.66016 1669.01953 1497.1875 1651.55469 1494.76172"></polygon>
            <polygon id="Helmet-color" fill-opacity="0.5" fill="#DCDCDC" points="121.746094 104.980469 83.3476562 145.316406 55.2617187 189.195312 30.5703125 238.425781 14.46875 275.011719 9.54296875 315.285156 0.51171875 372.691406 6.7265625 436.800781 20.96875 484.898438 47.7890625 547.945312 86.6640625 601.640625 126.925781 642.128906 200.878906 695.042969 275.632812 723.21875 348.019531 739.367187 448.480469 737.210938 551.148437 709.15625 632.941406 666.386719 687.3125 619.003906 750.148438 533.5625 785.328125 432.058594 785.101562 303.867187 762.335938 230.039062 711.117188 151.050781 653 92.765625 598.859375 55.4726562 538.078125 24.6289062 455.5 1.953125 394.554688 3.0546875 317.289062 6.1171875 252.800781 26.1210938 190.003906 54.2890625 128.976562 100.679687"></polygon>
            <polygon id="Body-Color" fill="#FFFFFF" points="677.179688 417.953125 746.0625 452.007812 834.601562 510.804688 915.4375 569.84375 996.710937 648.445312 1126.76562 789.132812 1242.40625 967.640625 1316.41406 1146.16406 1332.45312 1257.25781 1321.89844 1346.73437 1285.77344 1425.625 1236.74219 1472.88281 1170.25781 1511.59375 1078.5 1537.28906 986.320312 1548.41406 896.742188 1552.83594 803.351562 1548.53125 738.632813 1546.38281 642.007812 1531.45312 511.375 1500.11719 414.390625 1461.94531 330.835938 1419.28906 302.984375 1397.03125 313.25 1355.75 329 1349.90625 355.507812 1359.05469 412.820312 1385.75781 488.25 1416.71094 581.421875 1449.16406 638.179688 1456.09375 667.554688 1448.5 640.601562 1420.75 564.90625 1348.88281 528.773438 1275.30469 518.992188 1241.39062 502.9375 1296.45312 488.273438 1362.07812 465.617188 1363.54687 433.492188 1343.52344 431.242188 1320.07812 463.359375 1145.74219 477.4375 1001.38281 498.226563 838.195312 523.679688 720.164062 566.859375 570.726562 470.835938 590.851562 330.96875 614.617188 271.945312 615.585938 235.960938 551.054688 217.617188 451.257812 214.125 359.664062 217.164062 291.585938 235.351562 227.578125 276.140625 215.054688 373.101562 204.59375 411.601562 214.921875 482.890625 225.234375 537.640625 248.648438 619.421875 293.914062 658.585938 327.351562 673.929688 368.015625"></polygon>
            <path d="M327.296875,1343.55859 C332.721155,1343.55859 375.889614,1365.5767 376.910156,1370.61719 C378.419831,1378.07352 367.794922,1370.32812 354.126953,1397.04297 C330.465816,1443.29004 339.214025,1425.51367 319.503906,1417.6875 C295.674918,1408.22587 298.323533,1385.75481 308.109375,1364.73828 C316.577153,1346.55249 313.499992,1348.85671 323.449219,1344.41797 L327.296875,1343.55859 Z" id="Hoof" fill="#B8A381"></path>
            <path d="M439.556641,1281.39453 C446.462828,1294.31831 460.134438,1300.59044 474.484375,1302.76172 C481.611336,1303.84009 491.587471,1299.11608 496.011719,1304.80664 C499.857585,1309.75328 491.194408,1316.45104 489.892578,1322.58008 C487.469192,1333.98942 487.24386,1345.78893 484.880859,1357.21094 C484.458963,1359.25025 483.638108,1362.00987 481.625,1362.54297 C458.915755,1368.55667 458.989341,1359.98511 442.40625,1348.14844 C436.650869,1344.04036 429.519193,1341.96034 424.123047,1337.39062 C413.740142,1328.59789 429.423531,1290.50125 435.669922,1281.80664 L439.556641,1281.39453 Z" id="Hoof-2" fill="#B8A381"></path>
            <polygon id="Nose-Color" fill="#FDCAD5" points="315.898438 216.1875 294.386719 235.003906 280.183594 288.214844 277.210938 330.347656 278.824219 401.839844 287.738281 443.503906 307.542969 498.765625 330.355469 548.3125 380.71875 610.101562 315.898438 616.464844 256.859375 610.101562 201.9375 580.445313 162.050781 540.386719 139.429688 498.765625 127.832031 423.699219 127.832031 364.535156 156.179688 302.019531 191.476562 262.925781 256.859375 227.449219"></polygon>
            <polygon id="Ear-Spot" fill="#646873" points="611.765625 286.779297 614.761719 226.970703 627.335938 191.091797 647.722656 200.136719 664.439453 223.492188 670.050781 253.119141 653.835938 285.699219 638.646484 304.164062"></polygon>
            <path d="M532.844472,234.633744 C532.844472,234.633744 405.816259,197.664045 400.267578,211.705078 C388.939453,240.371094 397.363281,283.664062 434.738281,304.599609 C459.528079,318.485575 515.397191,317.283336 556.091797,330.582031 C596.786402,343.880726 657.701771,396.277419 671.927734,383.810547 C676.460937,379.837891 668.485508,341.423155 652.942759,314.219059 C637.40001,287.014963 532.844472,234.633744 532.844472,234.633744 Z" id="Eye-Spot" fill="#646873"></path>
            <path d="M909.898438,573.09375 C909.898438,573.09375 893.265625,582.554688 875.015625,614.421875 C856.765625,646.289062 796.273438,702.460938 805.703125,806.6875 C815.132813,910.914062 883.882813,882.289062 896.890625,975.6875 C909.898438,1069.08594 899.28125,1126.86719 919.039063,1188.52344 C938.796875,1250.17969 947.101563,1300.5 1001.42969,1316.66406 C1055.75781,1332.82812 1091.72656,1336.25 1126.66406,1352.94531 C1161.60156,1369.64062 1194.42969,1377.24219 1222.17969,1374.51563 C1249.92969,1371.78906 1298.58604,1384.29014 1330.28125,1316.66406 C1366.29297,1239.82812 1279.92969,1035.85156 1279.92969,1035.85156 L1224.85938,928 L1117.99219,780.335938 L947.460938,597.234375 L909.898438,573.09375 Z" id="Body-Spot" fill="#646873"></path>
            <g id="Outline" stroke="#000000" stroke-width="30">
                <ellipse id="Oval" cx="393.5" cy="370" rx="393.5" ry="370"></ellipse>
                <path d="M579.894531,554.070312 C579.894531,554.070312 417.847391,619.226562 309.937549,617.226563 C202.027706,615.226563 134.229515,532 123.841663,448.175781 C118.727423,406.906699 118.914092,311.933594 198.255541,256.003906 C277.596991,200.074219 428.736692,201.643212 498.653794,224.359375 C593.670606,255.230469 647.994509,315.241201 657.484268,327.007813 C674.505804,348.113281 684.296156,398.375 662.714188,424.847656 C641.132219,451.320313 680.40881,441.585937 699.478401,452.929687 C718.547993,464.273437 720.027344,482.253906 720.027344,504.222656 C720.027344,526.191406 700.730991,556.558594 684.400539,541.53125 C668.070086,526.503906 675.373258,485.699219 629.099444,492.058594" id="Path-2" stroke-linecap="round" stroke-linejoin="round"></path>
                <path d="M634.292969,304.697266 C634.292969,304.697266 669.337891,273.29855 669.337891,247.018416 C669.337891,220.738281 655.763843,216.747975 637.405355,196.367187 C627.539062,185.414062 624.721193,189.256375 619.580078,199.617187 C604.501953,230.003906 613.509766,250.746094 610.503906,285.541016" id="Path-3"></path>
                <path d="M675.101563,417.351563 C942.726563,537.484375 1185.67969,840.929688 1270.99219,1023.66406 C1339.45529,1170.30801 1348.75,1315.30469 1306.17969,1385.51563 C1263.60938,1455.72656 1221.05469,1538.98438 951.757813,1550.20313 C801.450223,1556.46485 645.424493,1549.69141 514.140625,1504.00781 C424.482715,1472.80904 308.988281,1411.5625 301.710937,1398.53906 C294.433594,1385.51563 323.785156,1342.67188 323.785156,1342.67188 C323.785156,1342.67188 570.605061,1487.39903 666.195313,1450.54687 C692.042969,1440.58203 488.215627,1344.56561 527.242187,1209.58984 C538.648437,1170.14063 588.085938,995.367187 597.195313,962.789062 C606.304688,930.210937 491.007812,1308.49609 486.390625,1365.02344 C485.313962,1378.20481 418.248934,1353.83135 425.585937,1325.14844 C445.7912,1246.15899 465.045648,1111.17976 470.726562,1042.38672 C476.979578,966.665815 487.292969,876.777344 502.21875,804.003906 C529.157892,672.657084 550.175781,616.636719 566.707031,564.027344" id="Path-5" stroke-linecap="round" stroke-linejoin="round"></path>
            </g>
            <ellipse id="Oval-3" fill="#000000" transform="translate(236.677670, 307.677670) rotate(45.000000) translate(-236.677670, -307.677670) " cx="236.67767" cy="307.67767" rx="7.5" ry="17.5"></ellipse>
            <ellipse id="Oval-4" fill="#000000" transform="translate(236.677670, 356.677670) rotate(-45.000000) translate(-236.677670, -356.677670) " cx="236.67767" cy="356.67767" rx="7.5" ry="17.5"></ellipse>
            <path d="M462.4375,363.723633 C439.789062,372.841309 461.562753,398.456164 480.134766,390.830078 C503.113468,381.394506 486.27002,360.169922 466.204102,363.047852 L462.4375,363.723633 Z" id="Path-6" fill="#000000"></path>
            <path d="M470.708984,244.050781 C463.742188,243.01888 456.806543,240.161491 449.808594,240.955078 C432.035441,242.970603 443.327215,264.324926 456.203125,266.605469 C470.693037,269.171879 486.588162,250.084333 468.109375,243.626953" id="Path-7" fill="#000000"></path>
            <path d="M1290.60156,1417.67969 C1290.60156,1417.67969 1327.21859,1439.98729 1353.39062,1425.69922 C1406.54688,1396.67969 1393.62998,1357.98315 1443.99609,1337.06641 C1494.3622,1316.14966 1542.82112,1340.96686 1559.44531,1348.09766 C1599.47852,1365.26953 1616.72266,1407.2833 1616.72266,1443.38672 C1616.72266,1499.94531 1635.8457,1499.48828 1621.35547,1505.18359 C1606.86523,1510.87891 1593.48047,1531.6543 1600.92969,1567.1582 C1608.37891,1602.66211 1655.3125,1612.83594 1655.5625,1631.41016 C1655.8125,1649.98437 1648.19531,1682.62109 1643.02734,1695.47656 C1637.85938,1708.33203 1701.9082,1646.00195 1707.70117,1601.14453 C1713.49414,1556.28711 1711.31483,1507.29554 1658.39648,1492.95121 C1640.89453,1488.20703 1683.55859,1386.98633 1607.76172,1331.74219 C1569.85092,1304.11111 1528.46094,1289.80859 1457.26953,1292.35937 C1417.3312,1293.79036 1386.71289,1314.38477 1361.92578,1356.66797 C1324.60087,1420.33884 1309.64844,1376.04297 1309.64844,1376.04297" id="Tail-Path" stroke="#000000" stroke-width="30"></path>
            <path d="" id="Path-4" stroke="#979797"></path>
            <path d="M287.195312,51.5507812 C259.236253,61.1163626 231.096149,76.7629805 215.316406,92.2539063 C199.203125,108.072266 225.857143,95.9059317 233.363281,93.8945313 C272.092863,83.5162656 319.133873,63.724941 361.439453,53.9414063 C399.191406,45.2109375 449.939453,43.2402344 544.835937,70.7773438 C476.637843,28.9513114 359.713197,26.7403712 287.195312,51.5507812 Z" id="Path-8" fill="#FFFFFF"></path>
        </g>
    </g>
</svg>