<?xml version="1.0" encoding="UTF-8"?>
<svg width="1740px" height="1728px" viewBox="0 0 1740 1728" version="1.1" xmlns="http://www.w3.org/2000/svg" xmlns:xlink="http://www.w3.org/1999/xlink">
    <!-- Generator: Sketch 43.1 (39012) - http://www.bohemiancoding.com/sketch -->
    <title>cow-animated</title>
    <desc>Created with Sketch.</desc>
    <defs></defs>
    <g id="Page-1" stroke="none" stroke-width="1" fill="none" fill-rule="evenodd">
        <g id="cow-animated" transform="translate(15.000000, 15.000000)">
            <g id="Tail" transform="translate(1279.000000, 1280.000000)">
                <path d="M26.5976562,100.527344 C26.5976562,100.527344 41.0205539,116.154859 49.0429687,116.837891 C57.0653836,117.520922 64.8144531,116.523437 85.2285156,88.6875 C105.642578,60.8515625 114.357422,43.4355469 146.660156,25.21875 C178.962891,7.00195313 234.88086,9.26171875 264.652344,18.8945312 C294.423828,28.5273438 318.202537,43.0093099 347.570312,73.8027344 C361.608445,88.5223443 370.808491,118.384547 374.644531,151.332031 C378.480572,184.279515 376.984375,225.902344 376.984375,225.902344 L347.570312,225.902344 C347.570312,225.902344 354.265991,163.825844 335.744141,118.405431 C317.22229,72.9850183 273.927734,59.4492187 258.224609,51.0195312 C197.945312,27.7265625 161.006946,51.4750912 141.375,70.3984375 C121.743054,89.3217838 86.8027344,159.570312 44.1445312,154.839844 C20.9667969,152.382812 7.42382812,136.679687 7.42382812,136.679687 L26.5976562,100.527344 Z" id="tail-color" fill="#FFFFFF" fill-rule="nonzero"></path>
                <path d="M339.578125,223.074219 C318.519531,240.671875 310.136718,277.095703 336.441406,314.505859 C346.302734,325.845703 370.592896,328.502635 377.052653,347.150391 C383.512409,365.798147 362.550704,412.531516 369.710938,405.339844 C415.876953,364.589844 439.805308,337.768108 432.960938,298 C426.116568,258.231892 411.289063,236.03711 392.816406,220.757813 C374.34375,205.478515 357.578125,214.832031 339.578125,223.074219 Z" id="tail-hair-color" fill="#B8A381" fill-rule="nonzero"></path>
                <path d="M0.62109375,146.773437 C0.62109375,146.773437 35.6627154,172.126612 64.3730469,163.386719 C118.947266,146.773437 136.652344,63.0585937 189.291016,53.6484375 C241.929688,44.2382812 322.888672,89.9374997 329.236328,142.955078 C335.962256,199.1321 335.15625,216.757812 335.15625,216.757812 C335.15625,216.757812 314.480469,251.654297 321.929688,287.158203 C329.378906,322.662109 376.3125,332.835937 376.5625,351.410156 C376.8125,369.984375 369.195313,402.621094 364.027344,415.476562 C358.859375,428.332031 422.908203,366.001953 428.701172,321.144531 C434.494141,276.287109 428.701172,238.615234 386.339844,203.636719 C386.339844,194.357422 391.767579,75.4355469 321.929688,31.9863281 C282.05165,7.17644964 228.777344,-4.43164063 181.273438,2.79492187 C141.794843,8.80062862 108.669922,26.0839843 83.8828125,68.3671875 C46.5578984,132.038062 26.0507812,96.3378906 26.0507812,96.3378906" id="tail-path" stroke="#000000" stroke-width="30"></path>
            </g>
            <g id="Body" transform="translate(300.000000, 417.000000)">
                <polygon id="body-color" fill="#FFFFFF" fill-rule="nonzero" points="367.554688 1.546875 446.0625 35.0078125 534.601563 93.8046875 615.4375 152.84375 690.503906 240.792969 817.03125 380.902344 942.40625 550.640625 1016.41406 729.164063 1032.45312 840.257813 1021.89844 929.734375 985.773437 1008.625 936.742187 1055.88281 870.257812 1094.59375 778.5 1120.28906 686.320312 1131.41406 596.742187 1135.83594 503.351562 1131.53125 438.632813 1129.38281 342.007813 1114.45313 211.375 1083.11719 114.390625 1044.94531 30.8359375 1002.28906 2.984375 980.03125 13.25 938.75 29 932.90625 55.5078125 942.054688 112.820312 968.757812 188.25 999.710938 281.421875 1032.16406 338.179688 1039.09375 367.554688 1031.5 340.601563 1003.75 264.90625 931.882813 228.773437 858.304688 218.992188 824.390625 202.9375 879.453125 186.900391 944.288574 131.242187 903.078125 163.359375 728.742188 177.4375 584.382813 198.226563 421.195313 223.679687 303.164062 266.859375 153.726563"></polygon>
                <path d="M27.296875,926.558594 C32.7211546,926.558594 75.8896144,948.576698 76.9101563,953.617188 C78.4198308,961.073519 67.7949219,953.328125 54.1269531,980.042969 C30.4658156,1026.29004 39.2140248,1008.51367 19.5039063,1000.6875 C-4.32508204,991.225875 -1.67646663,968.754812 8.109375,947.738281 C16.5771534,929.552485 13.4999915,931.856709 23.4492188,927.417969 L27.296875,926.558594 Z" id="hoof" fill="#B8A381" fill-rule="nonzero"></path>
                <path d="M138.51709,864.306152 C138.51709,864.306152 160.134438,883.59044 174.484375,885.761719 C181.611336,886.840094 200.735352,888.801758 200.735352,888.801758 L188.471191,944.777832 C188.471191,944.777832 176.518103,945.598106 164.089218,942.044922 C151.660334,938.491738 131.592908,928.382753 128.594727,925.84375 C123.198581,921.274036 138.51709,864.306152 138.51709,864.306152 Z" id="hoof2" fill="#B8A381" fill-rule="nonzero"></path>
                <path d="M609.898438,156.09375 C609.898438,156.09375 593.265625,165.554688 575.015625,197.421875 C556.765625,229.289062 496.273437,285.460938 505.703125,389.6875 C515.132813,493.914062 583.882813,465.289062 596.890625,558.6875 C609.898438,652.085938 599.28125,709.867187 619.039063,771.523438 C638.796875,833.179688 647.101563,883.5 701.429688,899.664062 C755.757813,915.828125 791.726563,919.25 826.664063,935.945313 C861.601563,952.640625 894.429688,960.242188 922.179688,957.515625 C949.929688,954.789062 998.586039,967.29014 1030.28125,899.664062 C1066.29297,822.828125 979.929688,618.851562 979.929688,618.851562 L924.859375,511 L817.992188,363.335938 L647.460938,180.234375 L609.898438,156.09375 Z" id="body-spot" fill="#646873" fill-rule="nonzero"></path>
                <path d="M375.101563,0.3515625 C642.726563,120.484375 885.679688,423.929688 970.992188,606.664062 C1039.45529,753.308007 1048.75,898.304688 1006.17969,968.515625 C963.609375,1038.72656 921.054688,1121.98438 651.757813,1133.20313 C501.450223,1139.46485 345.424493,1132.69141 214.140625,1087.00781 C124.482715,1055.80904 8.98828125,994.5625 1.7109375,981.539062 C-5.56640625,968.515625 23.7851562,925.671875 23.7851562,925.671875 C23.7851562,925.671875 270.605061,1070.39903 366.195313,1033.54687 C392.042969,1023.58203 188.215627,927.565609 227.242188,792.589844 C238.648438,753.140625 288.085938,578.367187 297.195313,545.789062 C306.304688,513.210937 191.007812,891.496094 186.390625,948.023438 C185.313962,961.204812 118.248934,936.831354 125.585937,908.148437 C145.7912,829.15899 165.045648,694.179762 170.726562,625.386719 C176.979578,549.665815 187.292969,459.777344 202.21875,387.003906 C229.157892,255.657084 250.175781,199.636719 266.707031,147.027344" id="body-outline" stroke="#000000" stroke-width="30" stroke-linecap="round" stroke-linejoin="round"></path>
            </g>
            <g id="Head">
                <ellipse id="helmet-color" fill-opacity="0.5" fill="#D8D8D8" fill-rule="nonzero" cx="393.5" cy="370" rx="393.5" ry="370"></ellipse>
                <path d="M580.175781,554.46875 C533.601562,580.484375 464.648438,595.410156 376.558594,607.753906 C288.46875,620.097656 229.484375,604.765625 205.605469,586.339844 C181.726563,567.914063 144.412109,507.478516 137.412109,459.826172 C130.412109,412.173829 117.0625,390.003906 145.527344,313.871094 C173.992188,237.738281 311.193657,194.212704 399.171875,205.523438 C487.150093,216.834171 596.065013,246.92199 641.730469,309.621094 C666.015625,342.964844 670.628906,363.953125 670.628906,389.320313 C670.628906,414.6875 658.546875,438.394531 658.546875,438.394531 C658.546875,438.394531 702.324219,443.472656 711.457031,469.304687 C720.589844,495.136719 717.097656,527.695313 701.070312,545.695312 C685.042969,563.695312 684.199219,528.738281 666.015625,507.667969 C647.832031,486.597656 634.859375,492.589844 634.859375,492.589844 C634.859375,492.589844 626.75,528.453125 580.175781,554.46875 Z" id="face-color" fill="#FFFFFF" fill-rule="nonzero"></path>
                <path d="M611.765625,286.779297 C611.765625,286.779297 611.501018,247.009369 614.761719,226.970703 C618.02242,206.932037 627.335938,191.091797 627.335938,191.091797 C627.335938,191.091797 660.120117,214.976562 664.439453,223.492188 C668.758789,232.007813 671.396484,236.611328 670.050781,253.119141 C668.705078,269.626954 638.646484,304.164062 638.646484,304.164062 L611.765625,286.779297 Z" id="ear-color" fill="#646873" fill-rule="nonzero"></path>
                <path d="M532.504883,234.345703 C462.99707,212.610352 407.18457,203.446289 399.80957,212.610352 C388.822266,238.977539 397.363281,283.664062 434.738281,304.599609 C459.528079,318.485575 515.397191,317.283336 556.091797,330.582031 C596.786402,343.880726 657.701771,396.277419 671.927734,383.810547 C676.460937,379.837891 668.485508,341.423155 652.942759,314.219059 C637.40001,287.014963 576.698497,254.728561 532.504883,234.345703 Z" id="Eye-Spot" fill="#646873" fill-rule="nonzero"></path>
                <path d="M313.526367,208.980469 C313.526367,208.980469 305.383299,215.772792 295.513672,239.226562 C285.644045,262.680333 280.384766,278.589844 277.210938,330.347656 C274.03711,382.105468 281.833984,446.005859 301.671875,497.029297 C321.509766,548.052734 380.167969,607.685547 380.167969,607.685547 C380.167969,607.685547 296.685211,620.613281 251.433258,607.685547 C206.181305,594.757812 174.439453,568.982422 159.396484,543.105469 C144.353516,517.228516 111.275391,455.306641 126.703125,365.277344 C142.130859,275.248047 203.37681,247.083656 239.496094,231.119141 C275.615378,215.154625 313.526367,208.980469 313.526367,208.980469 Z" id="nose-color" fill="#FDCAD5" fill-rule="nonzero"></path>
                <ellipse id="left-nostril" fill="#000000" fill-rule="nonzero" transform="translate(236.677670, 307.677670) rotate(45.000000) translate(-236.677670, -307.677670) " cx="236.67767" cy="307.67767" rx="7.5" ry="17.5"></ellipse>
                <ellipse id="right-nostril" fill="#000000" fill-rule="nonzero" transform="translate(236.677670, 356.677670) rotate(-45.000000) translate(-236.677670, -356.677670) " cx="236.67767" cy="356.67767" rx="7.5" ry="17.5"></ellipse>
                <path d="M634.292969,304.697266 C634.292969,304.697266 669.337891,273.29855 669.337891,247.018416 C669.337891,220.738281 655.763843,216.747975 637.405355,196.367187 C627.539062,185.414062 624.721193,189.256375 619.580078,199.617187 C604.501953,230.003906 613.509766,250.746094 610.503906,285.541016" id="left-ear" stroke="#000000" stroke-width="30"></path>
                <path d="M579.894531,554.070312 C579.894531,554.070312 417.847391,619.226562 309.937549,617.226563 C202.027706,615.226563 134.229515,532 123.841663,448.175781 C118.727423,406.906699 118.914092,311.933594 198.255541,256.003906 C277.596991,200.074219 428.736692,201.643212 498.653794,224.359375 C593.670606,255.230469 647.994509,315.241201 657.484268,327.007813 C674.505804,348.113281 684.296156,398.375 662.714188,424.847656 C641.132219,451.320313 680.40881,441.585937 699.478401,452.929687 C718.547993,464.273438 720.027344,482.253906 720.027344,504.222656 C720.027344,526.191406 700.730991,556.558594 684.400539,541.53125 C668.070086,526.503906 675.373258,485.699219 629.099444,492.058594" id="face-path" stroke="#000000" stroke-width="30" stroke-linecap="round" stroke-linejoin="round"></path>
                <path d="M287.195312,51.5507812 C259.236253,61.1163626 231.096149,76.7629805 215.316406,92.2539063 C199.203125,108.072266 225.857143,95.9059317 233.363281,93.8945313 C272.092863,83.5162656 319.133873,63.724941 361.439453,53.9414063 C399.191406,45.2109375 449.939453,43.2402344 544.835937,70.7773438 C476.637843,28.9513114 359.713197,26.7403712 287.195312,51.5507812 Z" id="helmet-highlight" fill="#FFFFFF" fill-rule="nonzero"></path>
                <ellipse id="helmet-outline" stroke="#000000" stroke-width="30" cx="393.5" cy="370" rx="393.5" ry="370"></ellipse>
                <g id="g-eyes-open" transform="translate(440.000000, 240.000000)" fill-rule="nonzero" fill="#000000">
                    <path d="M30.7089844,4.05078125 C23.7421875,3.01888021 16.8065433,0.161491366 9.80859375,0.955078125 C-7.96455903,2.97060261 3.32721516,24.3249262 16.203125,26.6054688 C30.6930371,29.1718785 46.5881621,10.0843327 28.109375,3.62695313" id="Left-Eye"></path>
                    <path d="M22.4375,123.723633 C-0.2109375,132.841309 21.5627534,158.456164 40.1347656,150.830078 C63.1134681,141.394506 46.2700195,120.169922 26.2041016,123.047852 L22.4375,123.723633 Z" id="Right-eye"></path>
                </g>
                <g id="g-eyes-closed" stroke-linecap="round" stroke-linejoin="round" transform="translate(444.000000, 244.000000)" stroke-width="20" stroke="#000000">
                    <polyline id="Right-eye-closed" points="44.6503906 147.888672 28.2949219 123.910156 14.5175781 147.888672"></polyline>
                    <polyline id="Left-eye-closed" points="30.34375 4.20507812 16.0117188 17.0683594 0.146484375 0.498046875"></polyline>
                </g>
                <g id="g-eyes-down" stroke-linecap="round" stroke-linejoin="round" transform="translate(445.000000, 240.000000)" stroke="#000000" stroke-width="20">
                    <path d="M28.9179688,122.375 C28.9179688,122.375 5.98828125,143.097656 30.9335938,155.160156 M11.0273437,0.84375 C11.0273437,0.84375 -13.4726563,10.171875 12.1289062,23.5898437" id="Shape"></path>
                </g>
            </g>
        </g>
    </g>
</svg>