<?xml version="1.0" encoding="UTF-8"?>
<svg width="613px" height="934px" viewBox="0 0 613 934" version="1.1" xmlns="http://www.w3.org/2000/svg" xmlns:xlink="http://www.w3.org/1999/xlink">
    <!-- Generator: Sketch 43.1 (39012) - http://www.bohemiancoding.com/sketch -->
    <title>space-trek</title>
    <desc>Created with Sketch.</desc>
    <defs></defs>
    <g id="Page-1" stroke="none" stroke-width="1" fill="none" fill-rule="evenodd">
        <g id="space-trek" transform="translate(10.000000, 10.000000)">
            <path d="M303.624045,0 C303.624045,0 533.432169,311.068649 585.414063,792.996094 C589.853131,834.150979 592.804688,856.136719 592.804688,867.738281 C592.804688,887.394531 535.226541,508.125419 387.059445,553.6318 C213.307435,606.996044 55.5756475,858.953568 7.24808949,911.517144 C-20.6068067,941.813583 34.5111917,625.663847 126.53408,359.746728 C218.556968,93.8296094 303.624045,0 303.624045,0 Z" id="Badge" stroke="#000000" stroke-width="20" fill="#CCCED4" stroke-linecap="round" stroke-linejoin="round"></path>
            <g id="cow-head" transform="translate(210.000000, 243.000000)">
                <path d="M69.5034722,42.9705621 C79.8194444,38.878201 134.815972,31.169634 153.78125,54.5076744 C172.746528,77.8457149 183.527778,111.932638 190.225694,144.066681 C196.923611,176.200724 202.704861,210.110697 196.465278,225.231843 C190.225694,240.352988 182.545139,255.548131 166.53125,261.503288 C150.517361,267.458446 86.4201389,273.468297 69.5034722,265.064801 C52.5868056,256.661305 29.7222222,239.719187 28.0798611,222.651596 C26.4375,205.584005 23.0868056,124.441364 31.5381944,93.3561496 C39.9895833,62.2709349 59.1875,47.0629232 69.5034722,42.9705621 Z M144.320312,42.4785156 C144.320312,42.4785156 139.740234,10.0566406 149.044922,6.68359375 C158.349609,3.31054688 171.177734,5.56054688 171.177734,5.56054688 L144.320312,42.4785156 Z" id="face-color" fill="#FFFFFF"></path>
                <path d="M114.257247,42.887691 C131.229469,58.1741493 96.9550903,76.4796715 93.1530802,99.137691 C90.7297353,113.579577 95.1850812,128.427251 94.4169691,143.050885 C93.2088357,166.051828 56.0940684,160.027808 44.8093302,164.078663 C43.8574107,164.420371 28.7953402,179.808907 23.1322469,175.33908 C20.5339083,173.288235 17.8349791,75.6428858 57.212108,51.9744965 C85.133983,35.1915104 114.257247,42.887691 114.257247,42.887691 Z M22.3136705,31.1563542 C34.4278198,31.7075694 65.2542087,57.2952431 40.3423163,54.5951563 C15.430424,51.8950694 2.88528509,35.6915104 2.88528509,35.6915104 C2.88528509,35.6915104 10.1995212,30.6051389 22.3136705,31.1563542 Z" id="spot-color" fill="#868C9C"></path>
                <path d="M197.5,201.527778 C197.5,201.527778 175.444444,188.829861 151.125,188.829861 C126.805556,188.829861 78.1909722,185.916667 61.59375,197.767361 C44.9965278,209.618056 31.5416667,224.302083 31.5416667,224.302083 L45.5972222,244.1875 L73.2673611,268.614583 L153.604167,266.916667 L191.190972,241.236111 L197.5,201.527778 Z" id="nose-color" fill="#FFD9E2"></path>
                <path d="M69.5034722,42.9705621 C79.8194444,38.878201 134.815972,31.169634 153.78125,54.5076744 C172.746528,77.8457149 183.527778,111.932638 190.225694,144.066681 C196.923611,176.200724 202.704861,210.110697 196.465278,225.231843 C190.225694,240.352988 182.545139,255.548131 166.53125,261.503288 C150.517361,267.458446 86.4201389,273.468297 69.5034722,265.064801 C52.5868056,256.661305 29.7222222,239.719187 28.0798611,222.651596 C26.4375,205.584005 23.0868056,124.441364 31.5381944,93.3561496 C39.9895833,62.2709349 59.1875,47.0629232 69.5034722,42.9705621 Z" id="face-outline" stroke="#000000" stroke-width="16"></path>
                <path d="M103.111111,215.111111 C103.111111,215.111111 106.011011,218.99701 112.455729,221.326823 L103.111111,215.111111 Z M151.64974,212.444444 C151.64974,212.444444 147.938368,216.978299 144,218.354601 L151.64974,212.444444 Z" id="nose" stroke="#000000" stroke-width="8" stroke-linecap="round" stroke-linejoin="round"></path>
                <path d="M91.0546875,143.291667 C91.0546875,143.291667 79.5458984,113.385417 67,143.291667 M156.054688,137.291667 C156.054688,137.291667 144.545898,107.385417 132,137.291667" id="closed-eyes" stroke="#000000" stroke-width="10" stroke-linecap="round" stroke-linejoin="round"></path>
                <path d="M143.386888,150.076279 C138.030655,150.36753 132.109127,146.310977 133.948561,135.905964 C135.787996,125.50095 136.17384,124.769715 142.742404,124.260598 C146.528777,123.967123 150.144763,127.56358 150.144763,136.132491 C150.144763,144.701402 148.743121,149.785028 143.386888,150.076279 Z M78.5329193,141.440156 C72.8267389,141.440156 67.3987616,138.922885 69.2067838,131.353004 C71.014806,123.783123 72.8267389,117.797526 78.5329193,117.797526 C84.2390997,117.797526 86.3437812,121.467122 86.3437812,127.995854 C86.3437812,134.524586 84.2390997,141.440156 78.5329193,141.440156 Z" id="eyes" fill="#000000" transform="translate(109.498883, 133.944182) rotate(-10.000000) translate(-109.498883, -133.944182) "></path>
                <path d="M53.0921455,50.1321349 L49.0244371,58.6043571 C24.1954441,56.2215446 -11.6734795,37.4515794 3.70846491,31.7597391 C10.2648258,29.3336635 22.9792982,23.6547044 35.0904094,31.7597391 C47.2015205,39.8647738 48.8033723,43.8358386 53.0921455,50.1321349 Z M137.777778,37.3424925 C138.240349,24.5895222 136.942659,17.6105968 147.192708,5.92235363 C152.461915,-0.0861802594 171.028034,-3.99023441 174.602431,6.72790919 C176.089101,11.1858218 165.742849,25.0516962 162.506944,28.4813814 C157.368931,33.9270826 151.19213,38.2892518 145.534722,43.193187 L137.777778,37.3424925 Z" id="left-ear" stroke="#000000" stroke-width="16"></path>
            </g>
            <path d="M467.16709,398.423208 C485.32334,474.579458 421.051555,218.977319 314.679687,125.957031 C314.679687,123.433594 304.646484,55.4355469 304.646484,42.1542969 C304.646484,28.8730469 439.221777,270.509145 467.16709,398.423208 Z M64.9960938,801.074219 C64.9960938,801.074219 123.496094,701.878906 205.515625,602.640625 C250.6034,548.087359 317.386719,557.476562 317.386719,557.476562 C317.386719,557.476562 244.910156,595.863281 211.582031,627.050781 C178.253906,658.238281 64.9960938,801.074219 64.9960938,801.074219 Z" id="highlight" fill="#FFFFFF"></path>
        </g>
    </g>
</svg>